<svg xmlns="http://www.w3.org/2000/svg" width="95" height="51"><path fill-rule="evenodd" fill="#fff" d="M94.992 48.114a47.051 47.051 0 0 0-12.157-31.578l-1.682-1.872C62.709-3.889 32.68-4.012 14.085 14.39A47.255 47.255 0 0 0 .057 48.197v2.796h9.271v-2.796h-3.64A41.512 41.512 0 0 1 16.36 20.421l2.803 2.542 1.847-2.096-2.801-2.488A41.702 41.702 0 0 1 46.222 6.475v5.337h2.802V6.363a41.746 41.746 0 0 1 28.011 11.989l-2.799 2.375 1.847 2.096 2.801-2.43a41.498 41.498 0 0 1 10.59 27.666h-3.755v2.794h9.273v-2.739z"/></svg>