<svg xmlns="http://www.w3.org/2000/svg" width="10" height="38"><path fill-rule="evenodd" fill="#fff" d="M9.616 32.929c0 .033.004.065.004.098a4.172 4.172 0 0 1-.624 2.128 4.272 4.272 0 0 1-.919 1.123c-.705.604-1.578.93-2.548.985a4.925 4.925 0 0 1-.473.017c-.096-.001-.191-.011-.286-.018a4.632 4.632 0 0 1-1.107-.218 4.523 4.523 0 0 1-1.084-.487 4.048 4.048 0 0 1-1.72-2.238 4.156 4.156 0 0 1-.233-1.427c0-.02.003-.04.004-.06-.001-.061-.008-.119-.006-.181 0-.037.002-.073.006-.109L3.777 1.51C3.848.797 4.474.255 5.22.258c.744.002 1.368.551 1.437 1.265l2.961 31.155c.006.052.006.104.005.155-.001.033-.006.064-.007.096z"/></svg>